<svg xmlns="http://www.w3.org/2000/svg" viewBox="0 0 29.64 48.27"><g id="Layer_2" data-name="Layer 2"><g id="Urban"><g id="DRY_-_Points_labels" data-name="DRY - Points/labels"><g id="South_Gippsland_Water" data-name="South Gippsland 
Water"><g id="South_Gippsland_Water_Pin_Small" data-name="South Gippsland 
Water Pin Small"><path d="M29.64,14.82A14.82,14.82,0,1,0,4.06,25,31.63,31.63,0,0,1,11.45,37.4l3.37,10.87,3.31-10.68A32.71,32.71,0,0,1,25.64,25,14.77,14.77,0,0,0,29.64,14.82Z" fill="#1d1345"/><circle cx="14.82" cy="14.82" r="11.92" fill="#fed925"/><circle cx="14.82" cy="14.82" r="8.51" fill="#ffeb9d"/></g></g><path d="M14.66,9.12l-3,5.27a3.74,3.74,0,1,0,6.49,0l-3-5.27A.26.26,0,0,0,14.66,9.12Z" fill="#1d1345"/></g></g></g></svg>